<mxfile host="app.diagrams.net" modified="2020-10-17T19:35:10.930Z" agent="5.0 (X11)" etag="8_5ayVrR_SNaeZ0oxh7K" version="13.8.0" type="github">
  <diagram id="nmtEte6CQkPldxOrCSio" name="Page-1">
    <mxGraphModel dx="525" dy="337" grid="1" gridSize="10" guides="1" tooltips="1" connect="1" arrows="1" fold="1" page="1" pageScale="1" pageWidth="850" pageHeight="1100" math="0" shadow="0">
      <root>
        <mxCell id="0" />
        <mxCell id="1" parent="0" />
        <mxCell id="HozGoDfqKZPIby4rbrbr-1" value="&lt;div&gt;Play Area&lt;br&gt;&lt;/div&gt;" style="whiteSpace=wrap;html=1;aspect=fixed;verticalAlign=top;align=left;" vertex="1" parent="1">
          <mxGeometry x="220" y="170" width="330" height="330" as="geometry" />
        </mxCell>
        <mxCell id="HozGoDfqKZPIby4rbrbr-2" value="&lt;div align=&quot;left&quot;&gt;Camera&lt;br&gt;&lt;/div&gt;&lt;div align=&quot;left&quot;&gt;&lt;br&gt;&lt;/div&gt;" style="rounded=0;whiteSpace=wrap;html=1;align=left;verticalAlign=top;" vertex="1" parent="1">
          <mxGeometry x="275" y="270" width="220" height="130" as="geometry" />
        </mxCell>
        <mxCell id="HozGoDfqKZPIby4rbrbr-3" value="&lt;div style=&quot;font-size: 6px;&quot;&gt;Player&lt;/div&gt;&lt;div style=&quot;font-size: 6px;&quot;&gt;&lt;br style=&quot;font-size: 6px;&quot;&gt;&lt;/div&gt;" style="shape=umlActor;verticalLabelPosition=bottom;verticalAlign=top;html=1;outlineConnect=0;align=center;fontSize=6;" vertex="1" parent="1">
          <mxGeometry x="300" y="327.5" width="10" height="15" as="geometry" />
        </mxCell>
        <mxCell id="HozGoDfqKZPIby4rbrbr-5" value="&lt;div&gt;Direction of&lt;/div&gt;&lt;div&gt;movement&lt;br&gt;&lt;/div&gt;" style="endArrow=classic;html=1;fontSize=6;exitX=0.5;exitY=0.5;exitDx=0;exitDy=0;exitPerimeter=0;" edge="1" parent="1" source="HozGoDfqKZPIby4rbrbr-3">
          <mxGeometry width="50" height="50" relative="1" as="geometry">
            <mxPoint x="390" y="390" as="sourcePoint" />
            <mxPoint x="380" y="335" as="targetPoint" />
          </mxGeometry>
        </mxCell>
        <mxCell id="HozGoDfqKZPIby4rbrbr-6" value="&lt;div&gt;Camera&lt;/div&gt;&lt;div&gt;Target&lt;br&gt;&lt;/div&gt;" style="ellipse;whiteSpace=wrap;html=1;fontSize=6;align=center;" vertex="1" parent="1">
          <mxGeometry x="380" y="327.5" width="10" height="15" as="geometry" />
        </mxCell>
      </root>
    </mxGraphModel>
  </diagram>
</mxfile>
